<svg xmlns="http://www.w3.org/2000/svg"  viewBox="0 0 32 32" width="32px" height="32px"><path d="M 26 4 L 26 6 L 28 6 L 28 4 L 26 4 z M 28 6 L 28 10 L 30 10 L 30 6 L 28 6 z M 28 10 L 26 10 L 26 12 L 28 12 L 28 10 z M 26 12 L 24 12 L 24 14 L 26 14 L 26 12 z M 24 14 L 22 14 L 22 16 L 24 16 L 24 14 z M 22 16 L 20 16 L 20 18 L 22 18 L 22 16 z M 20 18 L 18 18 L 18 20 L 20 20 L 20 18 z M 18 20 L 16 20 L 16 22 L 18 22 L 18 20 z M 16 22 L 14 22 L 14 24 L 16 24 L 16 22 z M 14 24 L 12 24 L 12 26 L 14 26 L 14 24 z M 12 26 L 10 26 L 10 28 L 12 28 L 12 26 z M 10 26 L 10 24 L 8 24 L 8 26 L 10 26 z M 8 24 L 8 22 L 6 22 L 6 24 L 8 24 z M 6 22 L 6 20 L 4 20 L 4 22 L 6 22 z M 4 20 L 4 16 L 2 16 L 2 20 L 4 20 z M 4 16 L 6 16 L 6 14 L 4 14 L 4 16 z M 6 16 L 6 18 L 8 18 L 8 16 L 6 16 z M 8 18 L 8 20 L 10 20 L 10 18 L 8 18 z M 10 20 L 10 22 L 12 22 L 12 20 L 10 20 z M 12 20 L 14 20 L 14 18 L 12 18 L 12 20 z M 14 18 L 16 18 L 16 16 L 14 16 L 14 18 z M 16 16 L 18 16 L 18 14 L 16 14 L 16 16 z M 18 14 L 20 14 L 20 12 L 18 12 L 18 14 z M 20 12 L 22 12 L 22 10 L 20 10 L 20 12 z M 22 10 L 24 10 L 24 8 L 22 8 L 22 10 z M 24 8 L 26 8 L 26 6 L 24 6 L 24 8 z"/></svg>